<svg id="Layer_1" enable-background="new 0 0 512 512" height="512" viewBox="0 0 512 512" width="512" xmlns="http://www.w3.org/2000/svg"><g><path d="m111.251 491.577c-51.13-4.433-91.251-47.335-91.251-99.614v-168.272c0-31.191 14.554-60.596 39.355-79.512l136-103.729c35.816-27.317 85.474-27.317 121.29 0l9.2 7.017c-24.56-2.424-49.828 4.224-70.489 19.983l-161.744 123.364c-8.578 6.542-13.612 16.713-13.612 27.501v200.647c0 28.598 12.007 54.389 31.251 72.615z" fill="#cee1f2"/><path d="m414 376.963c-35.841 0-65-29.159-65-65s29.159-65 65-65 65 29.159 65 65-29.159 65-65 65zm0-90c-13.785 0-25 11.215-25 25s11.215 25 25 25 25-11.215 25-25-11.215-25-25-25zm-160 101c-35.841 0-65-29.159-65-65s29.159-65 65-65 65 29.159 65 65-29.159 65-65 65zm0-90c-13.785 0-25 11.215-25 25s11.215 25 25 25 25-11.215 25-25-11.215-25-25-25zm-120.035 195.003c.652-11.026-7.757-20.494-18.784-21.146-42.158-2.494-75.181-37.572-75.181-79.857v-168.271c0-24.794 11.77-48.574 31.484-63.61l136-103.729c28.566-21.786 68.467-21.786 97.032 0l136 103.729c19.714 15.036 31.484 38.815 31.484 63.61 0 11.046 8.954 20 20 20s20-8.954 20-20c0-37.191-17.655-72.861-47.226-95.415l-136-103.729c-42.849-32.681-102.699-32.681-145.548 0l-136 103.729c-29.571 22.554-47.226 58.223-47.226 95.415v168.271c0 63.428 49.556 116.044 112.819 119.788.402.023.802.035 1.2.035 10.504-.001 19.317-8.196 19.946-18.82zm72.035-1.003c0-21.505 17.716-39 39.491-39h26.509c11.046 0 20-8.954 20-20s-8.954-20-20-20h-26.509c-43.832 0-79.491 35.439-79.491 79 0 11.046 8.954 20 20 20s20-8.955 20-20z" fill="#0023c4"/><path d="m492 511.963c-11.046 0-20-8.954-20-20 0-29.163-23.875-52.889-53.22-52.889h-13.56c-29.346 0-53.22 23.726-53.22 52.889 0 11.046-8.954 20-20 20s-20-8.954-20-20c0-51.219 41.818-92.889 93.22-92.889h13.56c51.402 0 93.22 41.67 93.22 92.889 0 11.045-8.954 20-20 20z" fill="#ff5cf3"/></g></svg>